<svg xmlns="http://www.w3.org/2000/svg" viewBox="0 0 32 32">
<path fill="#fff" style="fill: var(--color1, #fff)" d="M19.797 15.999l11.433-11.433c0.486-0.486 0.787-1.157 0.787-1.899 0-1.483-1.202-2.686-2.686-2.686-0.742 0-1.413 0.301-1.899 0.787v0l-11.433 11.433-11.433-11.433c-0.486-0.486-1.157-0.787-1.899-0.787-1.483 0-2.686 1.202-2.686 2.686 0 0.742 0.301 1.413 0.787 1.899v0l11.433 11.433-11.433 11.433c-0.486 0.486-0.787 1.157-0.787 1.899 0 1.483 1.202 2.686 2.686 2.686 0.742 0 1.413-0.301 1.899-0.787v0l11.433-11.433 11.433 11.433c0.486 0.486 1.157 0.787 1.899 0.787 1.483 0 2.686-1.202 2.686-2.686 0-0.742-0.301-1.413-0.787-1.899v0z"></path>
</svg>