<svg xmlns="http://www.w3.org/2000/svg" viewBox="0 0 32 32">
  <path d="M7.192 31.984h-6.629v-21.345h6.629zM3.874 7.729c-0.005 0-0.011 0-0.017 0-2.13 0-3.857-1.727-3.857-3.857s1.727-3.857 3.857-3.857c2.123 0 3.846 1.716 3.857 3.837v0.001c0 0.001 0 0.003 0 0.005 0 2.127-1.715 3.853-3.838 3.871h-0.002zM31.998 31.984h-6.613v-10.391c0-2.477-0.050-5.652-3.446-5.652-3.446 0-3.975 2.69-3.975 5.473v10.57h-6.62v-21.345h6.357v2.909h0.093c1.231-2.080 3.462-3.452 6.014-3.452 0.090 0 0.18 0.002 0.27 0.005l-0.013-0c6.708 0 7.934 4.417 7.934 10.154v11.729z"></path>
</svg>