<svg xmlns="http://www.w3.org/2000/svg" viewBox="0 0 32 32">
  <path d="M8.918 1.746c-1.417 0.257-2.304 1.379-2.657 3.361-0.129 0.724-0.13 2.35-0.002 3.307 0.083 0.616 0.303 1.817 0.376 2.048 0.021 0.069-0.127 0.136-0.759 0.345-3.166 1.047-5.279 2.653-5.795 4.404-0.107 0.363-0.11 1.106-0.006 1.497 0.48 1.806 2.805 3.585 6.095 4.665 0.242 0.079 0.44 0.163 0.44 0.186s-0.059 0.327-0.131 0.676c-0.67 3.241-0.323 5.964 0.92 7.212 0.613 0.616 1.274 0.875 2.225 0.872 1.727-0.005 3.823-1.020 5.982-2.897l0.541-0.471 0.393 0.353c2.724 2.454 5.385 3.507 7.172 2.838 2.092-0.783 2.869-4.044 1.973-8.287-0.043-0.205-0.062-0.388-0.042-0.407s0.241-0.1 0.49-0.182c2.766-0.906 4.948-2.413 5.727-3.956 0.138-0.272 0.141-0.301 0.141-1.322s-0.003-1.050-0.141-1.322c-0.579-1.147-1.856-2.219-3.673-3.082-0.676-0.321-1.908-0.799-2.334-0.906-0.14-0.035-0.267-0.084-0.283-0.109s0.033-0.355 0.106-0.733c0.217-1.11 0.305-1.984 0.305-3.022 0-1.161-0.1-1.909-0.364-2.704-0.239-0.723-0.487-1.15-0.925-1.595-0.896-0.91-2.165-1.092-3.813-0.546-1.277 0.424-2.829 1.392-4.256 2.659-0.461 0.409-0.533 0.455-0.613 0.392-0.208-0.175-0.377-0.32-0.543-0.468l0.026 0.022c-1.756-1.542-3.708-2.596-5.238-2.826-0.619-0.093-0.821-0.093-1.336 0zM23.017 3.398c0.533 0.158 0.943 0.786 1.157 1.772 0.094 0.435 0.114 0.708 0.116 1.617 0.001 0.621-0.027 1.301-0.066 1.574-0.1 0.698-0.28 1.651-0.326 1.725-0.031 0.050-0.118 0.046-0.382-0.014-0.537-0.124-1.859-0.337-2.818-0.456-0.481-0.060-0.879-0.114-0.884-0.122-0.306-0.485-1.577-2.106-2.169-2.768l-0.365-0.407 0.334-0.313c1.403-1.311 3.122-2.338 4.36-2.603 0.458-0.098 0.725-0.099 1.044-0.004zM10.714 3.581c0.855 0.289 1.849 0.836 2.736 1.505 0.588 0.444 1.428 1.164 1.428 1.225 0 0.027-0.114 0.175-0.253 0.329-0.527 0.585-1.084 1.267-1.667 2.040l-0.614 0.815c-0.006 0.008-0.321 0.051-0.699 0.095-1.042 0.122-2.915 0.426-3.28 0.534-0.071 0.021-0.107-0.073-0.2-0.523-0.296-1.429-0.407-2.992-0.28-3.941 0.166-1.243 0.552-1.995 1.139-2.22 0.315-0.12 1.115-0.054 1.69 0.14zM16.467 7.929c0.185 0.214 0.515 0.614 0.736 0.89l0.4 0.502-0.746 0.015c-0.41 0.008-1.094 0.008-1.519 0l-0.774-0.015 0.241-0.293c0.631-0.766 1.261-1.493 1.292-1.49 0.019 0.002 0.185 0.178 0.37 0.392zM18.479 11.1l0.427 0.034 0.23 0.347c0.732 1.105 1.693 2.749 2.262 3.871l0.327 0.644-0.481 0.929c-0.908 1.752-2.201 3.867-2.415 3.951-0.185 0.072-3.185 0.122-4.446 0.074-0.924-0.035-1.068-0.052-1.147-0.138-0.289-0.314-1.63-2.56-2.314-3.877l-0.478-0.92 0.502-0.974c0.578-1.122 1.249-2.28 1.886-3.254l0.444-0.68 0.229-0.006c0.126-0.004 0.648-0.024 1.162-0.046 0.954-0.040 3.046-0.015 3.814 0.045zM10.605 12.179c-0.153 0.239-0.402 0.668-0.643 1.101l-0.107 0.21c-0.148 0.278-0.288 0.486-0.31 0.462-0.058-0.064-0.8-2.089-0.8-2.184 0-0.037 1.915-0.379 2.17-0.388l0.171-0.006-0.48 0.805zM21.9 11.481c0.348 0.059 0.832 0.147 1.077 0.195 0.439 0.086 0.445 0.090 0.416 0.23-0.042 0.208-0.743 2.081-0.779 2.081-0.017 0-0.172-0.258-0.345-0.573-0.363-0.661-0.614-1.088-0.871-1.51l0.115 0.204c-0.352-0.585-0.421-0.734-0.343-0.734 0.053 0 0.382 0.048 0.729 0.108zM7.356 12.921c0.26 0.759 0.775 2.068 1.049 2.668l0.185 0.405-0.275 0.637c-0.338 0.784-0.831 2.064-1.058 2.751l-0.17 0.514-0.308-0.096c-2.961-0.921-5.259-2.699-5.11-3.952 0.095-0.802 1.193-1.849 2.769-2.639 0.891-0.447 2.585-1.079 2.659-0.992 0.018 0.021 0.135 0.338 0.26 0.705zM25.736 12.408c2.686 0.913 4.62 2.31 4.753 3.435 0.121 1.024-1.352 2.377-3.662 3.362-0.618 0.264-1.644 0.624-1.678 0.589-0.010-0.011-0.144-0.367-0.297-0.792s-0.482-1.242-0.73-1.814c-0.248-0.572-0.463-1.089-0.477-1.149s0.073-0.332 0.197-0.613c0.333-0.756 0.721-1.741 0.96-2.441 0.117-0.343 0.224-0.654 0.238-0.69 0.035-0.098 0.112-0.085 0.697 0.113zM15.545 13.188c-0.799 0.161-1.506 0.667-1.933 1.386-0.357 0.6-0.455 1.544-0.233 2.244 0.289 0.909 1.089 1.671 1.986 1.891 0.495 0.122 1.283 0.088 1.696-0.073 1.306-0.506 2.076-1.881 1.797-3.209-0.323-1.534-1.812-2.54-3.312-2.239zM10.65 19.897c0.25 0.419 0.446 0.771 0.435 0.782-0.026 0.026-1.202-0.146-1.847-0.27-0.315-0.061-0.494-0.119-0.494-0.163 0-0.064 0.426-1.258 0.696-1.953l0.12-0.307 0.318 0.574c0.402 0.729 0.659 1.166 0.92 1.599l-0.147-0.263zM22.936 18.695c0.312 0.793 0.53 1.413 0.53 1.51 0 0.041-0.226 0.107-0.6 0.177-0.882 0.164-1.644 0.281-1.723 0.262-0.045-0.010 0.063-0.234 0.302-0.63 0.204-0.337 0.544-0.931 0.756-1.319s0.402-0.706 0.421-0.707c0.020-0.001 0.161 0.317 0.315 0.706zM24.076 22.375c0.362 1.883 0.391 3.452 0.083 4.653-0.206 0.807-0.653 1.448-1.094 1.568-1.238 0.339-3.265-0.633-5.519-2.647l-0.239-0.213 0.323-0.367c0.485-0.551 1.207-1.464 1.713-2.165 0.248-0.343 0.478-0.645 0.513-0.672s0.338-0.077 0.676-0.112c0.867-0.090 2.007-0.261 2.693-0.405 0.323-0.068 0.625-0.126 0.671-0.129 0.065-0.004 0.106 0.109 0.179 0.488zM9.442 22.144c0.511 0.087 1.278 0.196 1.703 0.242s0.874 0.097 0.996 0.112c0.212 0.027 0.244 0.058 0.689 0.653 0.606 0.809 0.995 1.292 1.613 2l0.503 0.576-0.127 0.137c-0.070 0.075-0.367 0.334-0.66 0.575-1.378 1.131-2.558 1.797-3.7 2.089-1.301 0.332-1.961 0.015-2.356-1.132-0.315-0.916-0.351-2.729-0.085-4.252 0.2-1.139 0.227-1.226 0.374-1.189 0.066 0.017 0.539 0.101 1.050 0.189zM17.652 22.667c0 0.035-1.283 1.603-1.4 1.711l-0.132 0.122-0.28-0.306c-0.228-0.25-1.085-1.281-1.234-1.486-0.026-0.035 0.485-0.054 1.503-0.054 0.848-0.001 1.542 0.005 1.542 0.013z"></path>
</svg>