<svg xmlns="http://www.w3.org/2000/svg" viewBox="0 0 32 32">
  <path d="M14.712 0.342c0.376-0.215 0.826-0.342 1.305-0.342s0.93 0.127 1.318 0.349l-0.013-0.007 11.991 6.761c0.744 0.429 1.238 1.216 1.246 2.12v13.554c-0.016 0.939-0.548 1.749-1.324 2.162l-0.013 0.006-11.928 6.729c-0.364 0.205-0.799 0.326-1.263 0.326-0.514 0-0.994-0.149-1.398-0.405l0.011 0.006-3.579-2.068c-0.27-0.123-0.5-0.29-0.69-0.495l-0.001-0.001c0.153-0.205 0.424-0.231 0.645-0.321 0.543-0.19 1.009-0.413 1.447-0.678l-0.034 0.019c0.048-0.029 0.105-0.046 0.167-0.046 0.075 0 0.145 0.026 0.2 0.069l-0.001-0 3.052 1.766c0.218 0.126 0.439-0.040 0.625-0.146l11.711-6.61c0.128-0.065 0.214-0.196 0.214-0.347 0-0.012-0.001-0.024-0.002-0.036l0 0.001v-13.423c0.001-0.010 0.001-0.022 0.001-0.034 0-0.171-0.103-0.318-0.25-0.383l-0.003-0.001-11.897-6.698c-0.065-0.045-0.146-0.072-0.233-0.072s-0.168 0.027-0.235 0.073l0.001-0.001-11.88 6.711c-0.15 0.065-0.252 0.211-0.252 0.381 0 0.012 0 0.024 0.002 0.037l-0-0.002v13.423c-0.001 0.011-0.002 0.023-0.002 0.035 0 0.15 0.088 0.28 0.215 0.34l0.002 0.001 3.175 1.792c0.369 0.228 0.817 0.364 1.296 0.364 0.245 0 0.482-0.035 0.706-0.102l-0.018 0.004c0.575-0.221 0.975-0.768 0.975-1.409 0-0.002 0-0.004 0-0.006v0l0.003-13.343c-0-0.003-0-0.006-0-0.009 0-0.184 0.149-0.333 0.333-0.333 0.011 0 0.022 0 0.033 0.002l-0.001-0h1.526c0.187 0.012 0.335 0.167 0.335 0.357 0 0.017-0.001 0.035-0.004 0.052l0-0.002-0.003 13.427c0 1.193-0.489 2.49-1.592 3.075-1.359 0.703-3.040 0.555-4.383-0.121l-3.414-1.888c-0.794-0.414-1.329-1.228-1.336-2.168v-13.554c0.007-0.923 0.52-1.725 1.274-2.143l0.013-0.006zM18.17 9.737c1.733-0.1 3.59-0.067 5.15 0.788 1.145 0.693 1.899 1.932 1.899 3.347 0 0.008-0 0.017-0 0.025v-0.001c-0.043 0.156-0.184 0.269-0.352 0.269-0.015 0-0.031-0.001-0.046-0.003l0.002 0c-0.502 0-1.006 0.007-1.51-0.003-0.2-0.013-0.359-0.176-0.365-0.377v-0.001c-0.121-0.681-0.528-1.248-1.089-1.582l-0.010-0.006c-0.928-0.465-2.004-0.442-3.016-0.433-0.739 0.040-1.533 0.103-2.158 0.537-0.323 0.253-0.529 0.643-0.529 1.082 0 0.16 0.027 0.313 0.077 0.455l-0.003-0.010c0.161 0.385 0.605 0.508 0.966 0.623 2.090 0.546 4.304 0.502 6.355 1.212 0.848 0.293 1.678 0.863 1.97 1.752 0.128 0.362 0.202 0.779 0.202 1.213 0 0.897-0.315 1.719-0.84 2.364l0.005-0.007c-0.704 0.726-1.621 1.241-2.651 1.444l-0.032 0.005c-0.77 0.164-1.655 0.257-2.561 0.257-0.526 0-1.045-0.032-1.554-0.093l0.061 0.006c-1.268-0.145-2.587-0.478-3.566-1.341-0.745-0.686-1.21-1.666-1.21-2.755 0-0.069 0.002-0.138 0.006-0.206l-0 0.009c0.020-0.17 0.163-0.3 0.337-0.3 0.012 0 0.024 0.001 0.036 0.002l-0.001-0h1.506c0.002-0 0.005-0 0.008-0 0.195 0 0.352 0.157 0.354 0.351v0c0.053 0.653 0.374 1.222 0.853 1.603l0.005 0.004c1.030 0.664 2.322 0.619 3.501 0.638 0.977-0.043 2.073-0.056 2.871-0.703 0.296-0.288 0.479-0.69 0.479-1.135 0-0.135-0.017-0.265-0.048-0.39l0.002 0.011c-0.124-0.448-0.603-0.655-1.004-0.803-2.065-0.651-4.306-0.414-6.347-1.153-0.829-0.293-1.633-0.848-1.95-1.7-0.148-0.372-0.234-0.803-0.234-1.254 0-0.916 0.353-1.748 0.932-2.37l-0.002 0.002c0.903-0.919 2.229-1.273 3.484-1.4z"></path>
</svg>