<svg xmlns="http://www.w3.org/2000/svg" viewBox="0 0 32 32">
  <path d="M20.040 26.888c-0 0-0 0-0.001 0-0.179 0-0.335-0.095-0.421-0.237l-0.001-0.002-3.727-6.217-6.972 1.895c-0.035 0.009-0.075 0.014-0.115 0.014-0.187 0-0.35-0.105-0.433-0.259l-0.001-0.003-8.145-15.312c-0.037-0.067-0.059-0.148-0.059-0.233 0-0.249 0.185-0.455 0.424-0.488l6.919-0.929c0.020-0.003 0.044-0.005 0.068-0.005 0.178 0 0.335 0.095 0.421 0.237l0.001 0.002 8.35 13.935 9.703-2.638-3.235-4.57c-0.058-0.080-0.093-0.18-0.093-0.289 0-0.228 0.155-0.42 0.365-0.476l4.543-1.074c0.034-0.009 0.074-0.013 0.114-0.013 0.155 0 0.293 0.071 0.383 0.183l0.001 0.001 3.928 4.9c0.068 0.084 0.109 0.191 0.109 0.308 0 0.226-0.153 0.417-0.361 0.475l-0.003 0.001-4.126 1.125 3.612 5.090c0.057 0.079 0.092 0.179 0.092 0.286 0 0.214-0.137 0.396-0.328 0.464l-0.003 0.001-10.847 3.794c-0.047 0.018-0.1 0.029-0.156 0.030l-0.001 0zM16.877 20.162l3.378 5.633 9.845-3.446-3.438-4.847zM1.423 6.921l7.623 14.35 6.327-1.716-8.058-13.417zM24.047 12.105l3.026 4.267 3.763-1.023-3.275-4.078z"></path>
</svg>