<svg xmlns="http://www.w3.org/2000/svg" viewBox="0 0 32 32">
  <path d="M26.613 25.382l-14.369 4.25c-0.053 0.017-0.113 0.026-0.176 0.026-0.333 0-0.603-0.27-0.603-0.603 0-0.041 0.004-0.081 0.012-0.12l-0.001 0.004 5.133-24.584c0.051-0.224 0.249-0.389 0.485-0.389 0.196 0 0.366 0.114 0.446 0.279l0.001 0.003 9.506 20.183c0.041 0.085 0.064 0.185 0.064 0.29 0 0.312-0.208 0.575-0.493 0.659l-0.005 0.001zM29.077 24.38l-11.005-23.37c-0.277-0.574-0.84-0.971-1.499-1.006l-0.004-0c-0.035-0.003-0.076-0.004-0.117-0.004-0.629 0-1.18 0.332-1.487 0.83l-0.004 0.008-11.937 19.332c-0.171 0.271-0.272 0.601-0.272 0.955 0 0.367 0.109 0.708 0.297 0.993l-0.004-0.007 5.834 9.038c0.341 0.516 0.919 0.852 1.575 0.852 0.19 0 0.373-0.028 0.546-0.080l-0.013 0.003 16.935-5.008c0.522-0.156 0.938-0.521 1.16-0.996l0.005-0.011c0.103-0.221 0.164-0.48 0.164-0.753 0-0.281-0.064-0.548-0.178-0.785l0.005 0.011z"></path>
</svg>