<svg xmlns="http://www.w3.org/2000/svg" viewBox="0 0 32 32">
  <path d="M4.35 24.387l-1.174-0.677 13.088-22.669 1.174 0.679z"></path>
  <path d="M2.907 21.897h26.178v1.357h-26.178z"></path>
  <path d="M16.518 30.221l-13.093-7.56 0.679-1.174 13.093 7.56zM27.893 10.516l-13.093-7.559 0.679-1.174 13.093 7.56z"></path>
  <path d="M4.107 10.512l-0.679-1.174 13.105-7.562 0.679 1.174z"></path>
  <path d="M27.652 24.387l-13.090-22.67 1.174-0.679 13.090 22.67zM3.945 8.438h1.357v15.119h-1.357zM26.698 8.438h1.357v15.119h-1.357z"></path>
  <path d="M16.287 29.646l-0.592-1.026 11.39-6.575 0.592 1.026z"></path>
  <path d="M29.853 23.999c-0.502 0.86-1.421 1.428-2.472 1.428-1.576 0-2.854-1.278-2.854-2.854s1.278-2.854 2.854-2.854c0.525 0 1.017 0.142 1.439 0.389l-0.013-0.007c0.859 0.504 1.426 1.423 1.426 2.474 0 0.524-0.141 1.015-0.387 1.438l0.007-0.014zM7.084 10.849c-0.503 0.86-1.421 1.428-2.472 1.428-1.576 0-2.854-1.278-2.854-2.854s1.278-2.854 2.854-2.854c0.525 0 1.016 0.142 1.439 0.389l-0.014-0.007c0.859 0.504 1.427 1.423 1.427 2.475 0 0.524-0.141 1.016-0.387 1.438l0.007-0.014zM2.147 23.999c-0.24-0.409-0.382-0.901-0.382-1.426 0-1.576 1.278-2.854 2.854-2.854s2.854 1.278 2.854 2.854c0 1.051-0.568 1.97-1.415 2.465l-0.013 0.007c-0.409 0.239-0.9 0.38-1.424 0.38-1.052 0-1.97-0.567-2.467-1.413l-0.007-0.014zM24.917 10.85c-0.24-0.409-0.382-0.901-0.382-1.426 0-1.576 1.278-2.854 2.854-2.854s2.854 1.278 2.854 2.854c0 1.051-0.569 1.97-1.415 2.465l-0.014 0.007c-0.409 0.239-0.9 0.38-1.424 0.38-1.052 0-1.97-0.567-2.467-1.413l-0.007-0.013zM16 32c-1.575 0-2.853-1.277-2.853-2.853s1.277-2.853 2.853-2.853c1.575 0 2.852 1.277 2.852 2.853v0c0 1.575-1.277 2.853-2.852 2.853v0zM16 5.701c-1.574-0.001-2.849-1.277-2.849-2.85s1.276-2.85 2.85-2.85 2.85 1.276 2.85 2.85c0 0.787-0.319 1.499-0.834 2.015v0c-0.516 0.516-1.228 0.835-2.015 0.835-0.001 0-0.002 0-0.002 0h0z"></path>
</svg>